<svg width="410" height="130" viewBox="0 0 410 130" fill="none" xmlns="http://www.w3.org/2000/svg">
<path d="M244.04 103.04C243.08 102.912 241.768 102.656 240.104 102.272C238.44 101.952 236.744 101.28 235.016 100.256C233.288 99.232 231.816 97.664 230.6 95.552C229.384 93.504 228.776 90.752 228.776 87.296C228.776 83.328 229.576 78.976 231.176 74.24C232.84 69.44 234.856 64.448 237.224 59.264C239.592 54.08 241.864 48.96 244.04 43.904C245.768 39.872 246.632 36.8 246.632 34.688C246.632 32.576 245.832 31.52 244.232 31.52C242.44 31.52 239.752 32.96 236.168 35.84C232.648 38.656 228.552 42.944 223.88 48.704C222.664 50.24 221.096 52.384 219.176 55.136C217.256 57.824 215.208 60.832 213.032 64.16C210.856 67.424 208.712 70.752 206.6 74.144C204.552 77.472 202.728 80.544 201.128 83.36C199.592 86.176 198.472 88.416 197.768 90.08C196.936 92.064 195.976 93.408 194.888 94.112C193.8 94.88 192.776 95.264 191.816 95.264C190.984 95.264 190.28 95.04 189.704 94.592C189.064 94.144 188.744 93.6 188.744 92.96C188.744 92.576 188.84 92.256 189.032 92C189.416 91.232 190.376 89.472 191.912 86.72C193.448 83.968 195.24 80.32 197.288 75.776C199.336 71.232 201.288 65.952 203.144 59.936C203.72 58.08 204.296 55.936 204.872 53.504C205.512 51.072 206.088 48.576 206.6 46.016C207.112 43.392 207.528 40.96 207.848 38.72C208.232 36.416 208.424 34.56 208.424 33.152C208.424 30.912 208.04 29.28 207.272 28.256C206.504 27.168 205.48 26.624 204.2 26.624C202.792 26.624 201.192 27.232 199.4 28.448C197.608 29.664 195.784 31.424 193.928 33.728C190.728 37.76 187.912 41.504 185.48 44.96C183.048 48.352 180.808 51.744 178.76 55.136C176.776 58.528 174.792 62.144 172.808 65.984C170.888 69.824 168.84 74.144 166.664 78.944C164.488 83.68 161.992 89.184 159.176 95.456C158.728 96.48 157.96 97.216 156.872 97.664C155.848 98.112 154.888 98.336 153.992 98.336C153.096 98.336 152.36 98.144 151.784 97.76C151.208 97.376 151.016 96.832 151.208 96.128C152.616 93.888 154.184 91.104 155.912 87.776C157.64 84.384 159.4 80.64 161.192 76.544C162.984 72.448 164.712 68.192 166.376 63.776C168.04 59.36 169.512 55.04 170.792 50.816C172.136 46.592 173.192 42.624 173.96 38.912C174.728 35.2 175.112 32.032 175.112 29.408C175.112 24.48 174.056 20.96 171.944 18.848C169.896 16.736 167.24 15.68 163.976 15.68C161.096 15.68 157.928 16.384 154.472 17.792C151.016 19.2 147.528 21.12 144.008 23.552C140.552 25.984 137.288 28.736 134.216 31.808C129.8 36.224 126.312 41.024 123.752 46.208C121.256 51.392 120.008 56.64 120.008 61.952C120.008 65.536 120.68 68.576 122.024 71.072C123.368 73.568 125.128 75.456 127.304 76.736C129.544 78.016 132.008 78.656 134.696 78.656C137.448 78.656 140.008 77.984 142.376 76.64C144.808 75.232 146.92 73.44 148.712 71.264C150.568 69.024 152.008 66.688 153.032 64.256C154.056 61.76 154.568 59.424 154.568 57.248C154.568 55.392 154.056 53.856 153.032 52.64C152.008 51.424 150.376 50.816 148.136 50.816C147.88 50.816 147.592 50.848 147.272 50.912C147.016 50.912 146.728 50.912 146.408 50.912H146.12C145.672 50.912 145.256 50.848 144.872 50.72C144.488 50.528 144.296 50.304 144.296 50.048C144.296 49.792 144.616 49.504 145.256 49.184C145.96 48.864 147.208 48.704 149 48.704C151.88 48.704 154.024 49.568 155.432 51.296C156.904 52.96 157.64 55.104 157.64 57.728C157.64 60.288 156.968 62.912 155.624 65.6C154.344 68.288 152.584 70.784 150.344 73.088C148.104 75.392 145.576 77.248 142.76 78.656C140.008 80.064 137.16 80.768 134.216 80.768C130.76 80.768 127.528 79.968 124.52 78.368C121.576 76.768 119.208 74.464 117.416 71.456C115.624 68.384 114.728 64.736 114.728 60.512C114.728 56.48 115.56 52.512 117.224 48.608C118.888 44.64 121.032 40.928 123.656 37.472C126.344 33.952 129.192 30.848 132.2 28.16C135.528 25.152 139.048 22.592 142.76 20.48C146.472 18.304 150.152 16.64 153.8 15.488C157.512 14.272 160.968 13.664 164.168 13.664C168.904 13.664 172.808 15.072 175.88 17.888C179.016 20.704 180.584 25.248 180.584 31.52C180.584 34.08 180.232 37.024 179.528 40.352C178.824 43.616 177.992 46.912 177.032 50.24C176.072 53.504 175.144 56.416 174.248 58.976H174.44C176.744 54.816 178.792 51.264 180.584 48.32C182.44 45.312 184.296 42.528 186.152 39.968C188.008 37.408 190.088 34.72 192.392 31.904C194.376 29.536 196.648 27.648 199.208 26.24C201.768 24.832 204.232 24.128 206.6 24.128C208.712 24.128 210.504 24.832 211.976 26.24C213.448 27.648 214.184 30.048 214.184 33.44C214.184 33.824 214.184 34.144 214.184 34.4C214.184 34.656 214.152 35.04 214.088 35.552C213.512 41.696 212.296 47.744 210.44 53.696C208.584 59.584 206.664 65.536 204.68 71.552C206.664 68.48 209.352 64.576 212.744 59.84C216.136 55.104 219.848 50.208 223.88 45.152C228.808 39.008 233.384 34.4 237.608 31.328C241.832 28.256 245.32 26.72 248.072 26.72C251.528 26.72 253.256 28.832 253.256 33.056C253.256 34.656 252.936 36.576 252.296 38.816C251.72 41.056 250.792 43.424 249.512 45.92C248.104 48.736 246.536 52 244.808 55.712C243.144 59.36 241.544 63.2 240.008 67.232C238.472 71.264 237.192 75.232 236.168 79.136C235.208 82.976 234.728 86.528 234.728 89.792C234.728 93.312 235.528 96.128 237.128 98.24C238.792 100.416 241.64 101.504 245.672 101.504H246.248C247.208 101.504 247.688 101.696 247.688 102.08C247.688 102.336 247.368 102.592 246.728 102.848C246.088 103.104 245.192 103.168 244.04 103.04ZM267.746 92.288C266.274 92.288 264.962 91.872 263.81 91.04C262.722 90.208 262.178 88.512 262.178 85.952C262.178 84.864 262.242 83.84 262.37 82.88C262.562 81.92 262.786 80.896 263.042 79.808C262.466 80.768 261.666 81.952 260.642 83.36C259.618 84.768 258.466 86.144 257.186 87.488C255.97 88.832 254.69 89.952 253.346 90.848C252.066 91.744 250.85 92.192 249.698 92.192C248.034 92.192 246.69 91.456 245.666 89.984C244.642 88.448 244.13 86.464 244.13 84.032C244.13 81.408 244.738 78.592 245.954 75.584C247.17 72.576 248.834 69.696 250.946 66.944C253.058 64.192 255.49 61.952 258.242 60.224C260.994 58.496 263.874 57.632 266.882 57.632C268.354 57.632 269.762 57.888 271.106 58.4C272.45 58.848 273.634 59.616 274.658 60.704C275.106 61.152 275.33 61.664 275.33 62.24C275.33 62.624 275.17 62.944 274.85 63.2C274.53 63.456 274.114 63.52 273.602 63.392C272.898 61.152 271.394 60.032 269.09 60.032C268.002 60.032 266.754 60.384 265.346 61.088C263.618 61.984 261.762 63.424 259.778 65.408C257.858 67.328 256.034 69.536 254.306 72.032C252.642 74.464 251.266 76.928 250.178 79.424C249.09 81.92 248.546 84.192 248.546 86.24C248.546 88.352 249.346 89.408 250.946 89.408C252.354 89.408 253.794 88.736 255.266 87.392C256.802 86.048 258.242 84.384 259.586 82.4C260.994 80.352 262.274 78.336 263.426 76.352C264.578 74.368 265.474 72.768 266.114 71.552C267.074 69.824 267.97 68.384 268.802 67.232C269.634 66.08 270.818 65.504 272.354 65.504C273.058 65.504 273.762 65.6 274.466 65.792C275.17 65.984 275.906 66.016 276.674 65.888C274.754 67.808 273.058 70.08 271.586 72.704C270.178 75.328 269.09 77.92 268.322 80.48C267.554 82.976 267.17 85.088 267.17 86.816C267.17 88.736 267.81 89.696 269.09 89.696C270.114 89.696 271.202 89.12 272.354 87.968C273.57 86.816 274.722 85.376 275.81 83.648C276.962 81.856 278.018 80.064 278.978 78.272C279.938 76.416 280.706 74.816 281.282 73.472C281.602 73.472 281.858 73.504 282.05 73.568C282.306 73.632 282.434 73.888 282.434 74.336C282.37 74.592 282.242 74.88 282.05 75.2C281.922 75.456 281.698 75.936 281.378 76.64C280.866 77.664 280.162 79.04 279.266 80.768C278.37 82.496 277.314 84.256 276.098 86.048C274.882 87.776 273.57 89.248 272.162 90.464C270.754 91.68 269.282 92.288 267.746 92.288ZM288.232 92.384C285.864 92.384 283.72 91.616 281.8 90.08C279.944 88.544 279.016 86.208 279.016 83.072C279.016 80.448 279.592 77.664 280.744 74.72C281.96 71.776 283.528 69.024 285.448 66.464C287.432 63.84 289.608 61.728 291.976 60.128C294.408 58.464 296.84 57.632 299.272 57.632C300.488 57.632 301.672 57.984 302.824 58.688C303.976 59.392 304.552 60.608 304.552 62.336C304.552 63.936 303.944 65.696 302.728 67.616C301.512 69.536 299.784 71.328 297.544 72.992C296.584 73.696 295.368 74.368 293.896 75.008C292.424 75.648 290.952 76.192 289.48 76.64C288.008 77.024 286.792 77.216 285.832 77.216C285.512 77.984 285.192 79.008 284.872 80.288C284.616 81.568 284.488 82.88 284.488 84.224C284.488 85.824 284.808 87.264 285.448 88.544C286.088 89.824 287.272 90.464 289 90.464C291.112 90.464 293.064 89.856 294.856 88.64C296.712 87.424 298.344 85.888 299.752 84.032C301.224 82.176 302.472 80.288 303.496 78.368C304.52 76.448 305.32 74.816 305.896 73.472C306.664 73.472 307.048 73.76 307.048 74.336C306.216 76.128 305.256 78.08 304.168 80.192C303.144 82.304 301.896 84.288 300.424 86.144C299.016 87.936 297.288 89.44 295.24 90.656C293.256 91.808 290.92 92.384 288.232 92.384ZM286.504 75.488C287.4 75.488 288.904 75.168 291.016 74.528C293.128 73.824 295.048 72.736 296.776 71.264C298.44 69.792 299.72 68.192 300.616 66.464C301.512 64.672 301.96 63.168 301.96 61.952C301.96 60.544 301.448 59.84 300.424 59.84C299.656 59.84 298.6 60.352 297.256 61.376C295.912 62.4 294.248 64.128 292.264 66.56C291.048 68.096 289.896 69.76 288.808 71.552C287.72 73.344 286.952 74.656 286.504 75.488ZM307.899 92.384C305.275 92.384 303.131 91.584 301.467 89.984C299.867 88.32 299.067 86.592 299.067 84.8C299.067 83.328 299.451 81.984 300.219 80.768C300.923 79.488 301.883 78.848 303.099 78.848L303.195 78.656C304.603 76.096 305.947 73.504 307.227 70.88C308.571 68.192 310.043 65.344 311.643 62.336C312.987 59.84 314.427 57.792 315.963 56.192C317.563 54.592 319.419 53.792 321.531 53.792C322.043 53.792 322.747 53.92 323.643 54.176C324.539 54.368 324.987 54.816 324.987 55.52C324.987 56.032 324.699 56.288 324.123 56.288C323.675 56.288 323.163 56.16 322.587 55.904C322.075 55.648 321.659 55.52 321.339 55.52C320.123 55.52 319.099 56.224 318.267 57.632C317.435 59.04 317.019 60.544 317.019 62.144C317.019 63.872 317.307 65.44 317.883 66.848C318.459 68.192 319.131 69.504 319.899 70.784C320.667 72.064 321.339 73.376 321.915 74.72C322.491 76 322.779 77.408 322.779 78.944C322.779 82.016 322.171 84.512 320.955 86.432C319.803 88.288 318.267 89.696 316.347 90.656H316.443C319.835 90.656 322.619 89.088 324.795 85.952C327.035 82.752 329.243 78.592 331.419 73.472C332.187 73.472 332.571 73.76 332.571 74.336C331.355 77.216 330.011 80.032 328.539 82.784C327.067 85.536 325.339 87.808 323.355 89.6C321.371 91.392 318.939 92.288 316.059 92.288C314.843 92.288 313.723 92.16 312.699 91.904C311.227 92.224 309.627 92.384 307.899 92.384ZM306.459 82.208C306.459 83.744 306.811 85.216 307.515 86.624C308.219 88.032 309.499 89.088 311.355 89.792C313.019 88.832 314.299 87.36 315.195 85.376C316.155 83.328 316.635 81.216 316.635 79.04C316.635 77.248 316.443 75.424 316.059 73.568C315.675 71.712 315.259 69.888 314.811 68.096C314.427 66.304 314.235 64.704 314.235 63.296C314.235 62.848 314.235 62.464 314.235 62.144C314.299 61.76 314.363 61.408 314.427 61.088C313.275 62.816 312.091 64.832 310.875 67.136C309.723 69.44 308.603 71.648 307.515 73.76C306.427 75.872 305.435 77.6 304.539 78.944C305.819 79.136 306.459 80.224 306.459 82.208ZM303.291 87.008C303.291 88.032 303.643 88.928 304.347 89.696C305.051 90.464 306.107 90.848 307.515 90.848C308.155 90.848 308.763 90.784 309.339 90.656C307.995 89.824 306.907 88.768 306.075 87.488C305.307 86.208 304.923 84.736 304.923 83.072C304.347 83.712 303.931 84.384 303.675 85.088C303.419 85.728 303.291 86.368 303.291 87.008ZM351.349 41.312C350.517 42.528 349.589 44.064 348.565 45.92C347.541 47.776 346.581 49.568 345.685 51.296C344.853 53.024 344.213 54.336 343.765 55.232H352.597C352.597 55.488 352.469 55.904 352.213 56.48C352.021 57.056 351.605 57.472 350.965 57.728H342.613C341.845 59.456 340.949 61.536 339.924 63.968C338.964 66.4 338.005 68.928 337.045 71.552C336.149 74.176 335.381 76.64 334.741 78.944C334.165 81.184 333.877 83.008 333.877 84.416C333.877 86.336 334.133 87.776 334.645 88.736C335.157 89.632 336.085 90.08 337.429 90.08C339.157 90.08 340.821 89.248 342.421 87.584C344.021 85.856 345.525 83.712 346.933 81.152C348.405 78.592 349.685 76.032 350.773 73.472C351.541 73.472 351.925 73.76 351.925 74.336C351.221 76.064 350.357 77.952 349.333 80C348.309 82.048 347.125 84.032 345.781 85.952C344.501 87.808 343.029 89.344 341.365 90.56C339.765 91.712 337.973 92.288 335.989 92.288C333.301 92.288 331.477 91.552 330.517 90.08C329.557 88.544 329.077 86.592 329.077 84.224C329.077 82.496 329.397 80.416 330.037 77.984C330.677 75.488 331.445 72.928 332.341 70.304C333.301 67.68 334.229 65.248 335.125 63.008C336.021 60.704 336.725 58.944 337.237 57.728H331.093C331.093 57.216 331.317 56.672 331.765 56.096C332.213 55.52 332.693 55.232 333.205 55.232H338.293C338.805 54.208 339.381 52.928 340.021 51.392C340.725 49.856 341.653 48.16 342.805 46.304C343.765 44.768 344.981 43.552 346.453 42.656C347.989 41.76 349.621 41.312 351.349 41.312ZM350.885 73.184C351.397 72.096 352.069 70.368 352.901 68C353.733 65.568 354.597 62.88 355.493 59.936C356.389 56.992 357.061 54.208 357.509 51.584C357.701 50.56 358.053 49.824 358.565 49.376C359.077 48.864 359.621 48.608 360.197 48.608C361.029 48.608 361.797 49.024 362.501 49.856C363.205 50.624 363.557 51.744 363.557 53.216C363.557 55.008 363.013 56.544 361.925 57.824C360.901 59.104 359.621 60.32 358.085 61.472C358.725 61.536 359.397 61.6 360.101 61.664C360.805 61.664 361.573 61.664 362.405 61.664C365.413 61.664 368.389 61.472 371.333 61.088C371.461 61.472 371.525 61.76 371.525 61.952C371.525 62.784 371.269 63.84 370.757 65.12C370.309 66.4 369.829 67.552 369.317 68.576C369.061 69.152 368.549 70.208 367.781 71.744C367.013 73.216 366.181 74.912 365.285 76.832C364.389 78.688 363.621 80.544 362.981 82.4C362.405 84.192 362.117 85.728 362.117 87.008C362.117 88.672 362.757 89.504 364.037 89.504C365.253 89.504 366.949 88.096 369.125 85.28C371.301 82.4 373.477 78.464 375.653 73.472C376.421 73.472 376.805 73.76 376.805 74.336C376.101 76.064 375.205 77.952 374.117 80C373.093 82.048 371.941 84 370.661 85.856C369.381 87.648 368.005 89.152 366.533 90.368C365.061 91.52 363.525 92.096 361.925 92.096C360.709 92.096 359.493 91.616 358.277 90.656C357.061 89.632 356.453 88 356.453 85.76C356.453 83.776 356.837 81.856 357.605 80C358.373 78.08 359.237 76.288 360.197 74.624C361.157 72.96 362.021 71.488 362.789 70.208C363.557 68.928 363.941 67.904 363.941 67.136C363.941 65.984 363.205 65.152 361.733 64.64C360.325 64.128 358.469 63.84 356.165 63.776C355.013 66.72 354.149 68.896 353.573 70.304C352.997 71.712 352.453 73.056 351.941 74.336C350.917 74.336 350.565 73.952 350.885 73.184ZM381.393 92C378.769 92 376.817 91.072 375.537 89.216C374.321 87.296 373.713 84.992 373.713 82.304C373.713 79.808 374.193 77.216 375.153 74.528C376.177 71.584 377.585 68.896 379.377 66.464C381.233 64.032 383.249 62.08 385.425 60.608C387.665 59.072 389.873 58.304 392.049 58.304C394.673 58.304 396.593 59.2 397.809 60.992C399.089 62.784 399.729 65.056 399.729 67.808C399.729 69.728 399.409 71.744 398.769 73.856C398.129 75.968 397.265 78.048 396.177 80.096C397.009 80.928 398.193 81.344 399.729 81.344C401.521 81.344 403.057 80.768 404.337 79.616C405.617 78.464 406.865 76.416 408.081 73.472C408.849 73.472 409.233 73.76 409.233 74.336C408.017 77.28 406.609 79.456 405.009 80.864C403.473 82.208 401.489 82.848 399.057 82.784C397.585 82.784 396.369 82.368 395.409 81.536C393.617 84.48 391.473 86.976 388.977 89.024C386.545 91.008 384.017 92 381.393 92ZM382.737 89.888C384.209 89.888 385.681 89.28 387.153 88.064C388.625 86.784 389.969 85.344 391.185 83.744C392.401 82.144 393.265 80.768 393.777 79.616C392.753 77.76 392.145 76.384 391.953 75.488C391.825 74.528 391.761 73.824 391.761 73.376C391.761 72.16 392.081 71.232 392.721 70.592C393.361 69.952 394.001 69.632 394.641 69.632C395.537 69.632 396.305 70.016 396.945 70.784C397.073 70.08 397.169 69.44 397.233 68.864C397.297 68.224 397.329 67.616 397.329 67.04C397.329 65.376 397.009 64.032 396.369 63.008C395.793 61.92 394.865 61.376 393.585 61.376C392.241 61.376 390.833 61.952 389.361 63.104C387.889 64.256 386.481 65.792 385.137 67.712C383.857 69.632 382.737 71.776 381.777 74.144C380.945 76.128 380.305 78.016 379.857 79.808C379.409 81.536 379.185 83.136 379.185 84.608C379.185 86.208 379.473 87.488 380.049 88.448C380.625 89.408 381.521 89.888 382.737 89.888Z" fill="#EF4444"/>
<path d="M34.0325 13.8291C35.8329 12.6642 40.1323 10.5251 42.928 11.2876C42.2926 11.4994 40.8312 12.3043 40.0687 13.8291C41.3396 13.1937 44.5165 12.1136 47.058 12.8761L44.5165 14.7822C49.535 14.9958 56.5657 17.4818 61.2631 24.2579C59.2147 22.323 56.4521 21.1361 53.412 21.1361C47.0955 21.1361 41.975 26.2567 41.9749 32.5732C41.9749 34.6566 42.5323 36.6099 43.5057 38.2923C40.9004 38.3149 38.798 39.8704 38.798 41.7863C38.798 41.8447 38.7997 41.9029 38.8035 41.9607C38.417 42.0724 38.0383 42.2049 37.6755 42.3615C35.9168 43.1206 34.4266 44.4969 34.3688 46.7925C34.3291 48.3812 35.3455 49.7651 36.674 50.451C37.2052 50.7252 37.6844 50.8817 38.1377 50.9387C38.1147 54.7418 40.8794 56.9528 43.6329 56.996C45.0806 57.0185 46.5294 56.4384 47.5185 55.1792C48.4236 54.0264 48.891 52.3719 48.7061 50.2387C49.2438 50.2404 49.7969 50.149 50.3436 49.8832C51.0996 49.5155 51.7723 48.8535 52.372 47.8256L52.3919 47.7915L52.4074 47.7555C52.8975 46.6118 52.8217 45.1482 51.9172 43.9128C52.4064 43.9766 52.9053 44.0102 53.412 44.0102C59.7284 44.0101 64.849 38.8896 64.849 32.5732C64.849 32.3274 64.8401 32.0835 64.8248 31.8416C66.7365 38.3296 66.9774 47.0508 64.2136 58.6242L55.5806 63.0111C54.2754 59.1737 49.8018 62.0665 46.6032 64.965C46.0036 64.572 45.287 64.3427 44.5165 64.3427C43.5505 64.3427 42.6685 64.7023 41.9966 65.2945C37.8031 62.2229 31.8507 59.3594 31.8087 65.1177C20.9136 62.2346 9.10559 58.9027 7.34609 57.6711C7.33748 57.6481 3.5377 47.4904 7.0284 34.797C-6.63251 32.2554 1.94524 11.923 13.0646 22.0892C15.6062 19.8653 22.2778 15.3541 28.6317 15.0999L34.9856 11.2876L34.0325 13.8291ZM39.6698 50.7507C39.5865 50.8304 39.5074 50.9131 39.4334 50.9995C39.4243 51.1617 39.4229 51.3206 39.4278 51.476C39.4113 51.2695 39.4047 51.056 39.4098 50.835C39.4983 50.8097 39.5848 50.7811 39.6698 50.7507ZM47.4136 50.0824C47.4137 50.0836 47.4135 50.0849 47.4136 50.0861C47.4113 50.0843 47.4091 50.0824 47.4068 50.0805C47.4091 50.081 47.4113 50.0819 47.4136 50.0824ZM48.0422 42.9814C49.2113 43.274 50.0153 43.7429 50.539 44.2571C51.4976 45.1985 51.6023 46.3693 51.252 47.2219C50.7474 48.0751 50.2498 48.5162 49.7876 48.7409C49.3205 48.9679 48.8181 49.0096 48.2451 48.9394C47.6533 48.867 47.0503 48.6865 46.3569 48.5001C45.6909 48.3211 44.9513 48.1408 44.1988 48.1408C41.9991 48.1408 40.7704 48.8457 39.8274 49.3012C39.3602 49.5268 39.0189 49.6622 38.6571 49.689C38.3111 49.7146 37.8809 49.6436 37.2573 49.3216C36.2745 48.8143 35.6137 47.8357 35.639 46.8241C35.6799 45.2002 36.6874 44.1724 38.1787 43.5287C38.4999 43.39 38.8392 43.2728 39.1883 43.1731C39.9202 44.4132 41.6035 45.281 43.5634 45.281C45.6227 45.2809 47.3764 44.3228 48.0422 42.9814ZM27.3609 22.4069C21.0444 22.4069 15.9239 27.5275 15.9239 33.8439C15.9239 40.1604 21.0444 45.281 27.3609 45.281C33.6774 45.2809 38.798 40.1604 38.798 33.8439C38.7979 27.5275 33.6774 22.4069 27.3609 22.4069ZM11.1584 26.8546C7.34611 19.8654 -0.596287 28.4431 8.29918 30.9847L9.25227 29.3962L7.66379 27.8077L11.1584 26.8546Z" fill="#1B6899"/>
<path d="M32.4439 33.844C32.4439 34.5458 31.875 35.1148 31.1731 35.1148C30.4713 35.1148 29.9024 34.5458 29.9024 33.844C29.9024 33.1422 30.4713 32.5732 31.1731 32.5732C31.875 32.5732 32.4439 33.1422 32.4439 33.844Z" fill="white"/>
<path d="M27.3608 23.6778C32.9755 23.6778 37.5271 28.2293 37.5271 33.844C37.5271 39.4587 32.9755 44.0103 27.3608 44.0103C21.7461 44.0103 17.1946 39.4587 17.1946 33.844C17.1946 28.2293 21.7461 23.6778 27.3608 23.6778ZM29.9024 30.0317C27.446 30.0317 25.4546 32.023 25.4546 34.4794C25.4546 36.9358 27.446 38.9271 29.9024 38.9271C32.3588 38.9271 34.3501 36.9358 34.3501 34.4794C34.3501 32.023 32.3588 30.0317 29.9024 30.0317Z" fill="white"/>
<path d="M53.4118 22.407C59.0265 22.407 63.5781 26.9586 63.5781 32.5732C63.5781 38.1879 59.0265 42.7395 53.4118 42.7395C51.5445 42.7395 49.7953 42.235 48.2915 41.3564C48.0682 40.0226 46.8214 38.9214 45.1437 38.4891C43.9491 36.8225 43.2456 34.7801 43.2456 32.5732C43.2456 26.9586 47.7972 22.407 53.4118 22.407ZM53.4118 29.3963C50.9554 29.3963 48.9641 31.3876 48.9641 33.844C48.9641 36.3004 50.9554 38.2917 53.4118 38.2917C55.8682 38.2917 57.8596 36.3004 57.8596 33.844C57.8596 31.3876 55.8682 29.3963 53.4118 29.3963Z" fill="white"/>
<path d="M56.5888 33.2086C56.5888 33.9104 56.0198 34.4794 55.318 34.4794C54.6162 34.4794 54.0472 33.9104 54.0472 33.2086C54.0472 32.5068 54.6162 31.9378 55.318 31.9378C56.0198 31.9378 56.5888 32.5068 56.5888 33.2086Z" fill="white"/>
<path d="M44.5387 49.2491C45.9215 49.3009 47.1526 49.6882 47.6933 50.3642C47.6933 58.3065 39.1155 56.718 39.4332 50.9995C40.2912 49.9986 41.7929 49.4491 43.3008 49.2913C43.6244 50.4454 44.1205 52.8175 43.881 54.4942C44.2979 54.0772 45.0011 52.4501 44.5387 49.2491Z" fill="white"/>
<path d="M64.5312 30.0317C74.3797 23.6778 64.5312 12.2408 58.4949 18.5947L61.0365 21.7716C64.8488 19.5477 65.8019 24.3132 62.625 26.537L64.5312 30.0317Z" fill="#1B6899"/>
<path d="M46.4225 68.1551C46.4225 69.2079 45.5691 70.0613 44.5163 70.0613C43.4636 70.0613 42.6102 69.2079 42.6102 68.1551C42.6102 67.1024 43.4636 66.2489 44.5163 66.2489C45.5691 66.2489 46.4225 67.1024 46.4225 68.1551Z" fill="white"/>
<path d="M34.0324 68.4726C32.2535 60.8481 38.3743 64.2367 41.6571 66.8842V67.5195C41.6571 67.5195 40.069 67.5197 40.0687 68.1549C40.3864 68.4726 41.6571 68.4726 41.6571 68.4726V69.7434C39.8569 72.4968 35.3032 76.0974 34.0324 68.4726Z" fill="white"/>
<path d="M47.3756 66.2485C50.129 63.6011 55.0003 60.213 54.3649 67.5199C53.7847 74.1911 49.9171 71.6493 47.3756 69.7431V68.1553C47.3756 68.1553 48.6461 68.1551 48.9641 67.8376C48.9641 67.2022 47.3756 67.2022 47.3756 67.2022V66.2485Z" fill="white"/>
<path d="M39.1155 73.5559L42.2925 71.332C44.0716 72.0945 45.9989 71.4379 46.7402 71.0143L49.5995 72.6028L45.1517 79.5921L39.1155 73.5559Z" fill="white"/>
<path d="M32.1262 66.8843L24.5016 64.6604L31.8085 76.0975C38.6708 76.3516 38.2683 79.8039 37.2094 81.4983C37.7177 84.294 36.3622 85.2047 35.6209 85.3106C36.3834 92.9353 33.8206 99.0774 32.4439 101.195C34.6678 101.831 39.4968 102.911 41.0217 102.148C42.5466 101.386 43.7751 99.7128 44.1987 98.9715C41.6571 97.383 42.6102 82.4514 44.1987 80.8629L37.8448 74.1913C33.5241 75.2079 32.2321 69.7436 32.1262 66.8843Z" fill="white"/>
<path d="M59.1303 63.072L55.6357 64.9781C56.144 72.6028 52.6705 73.6618 50.8703 73.2382L44.5164 82.7691C42.9279 91.0291 44.5164 97.383 44.5164 97.383C46.7402 99.9246 49.5995 102.148 50.5526 102.148C51.315 102.148 55.1062 100.242 56.9065 99.2892C51.5692 91.4104 56.1652 71.8615 59.1303 63.072Z" fill="white"/>
<path d="M47.6933 85.946C47.6933 86.6478 47.1244 87.2168 46.4225 87.2168C45.7207 87.2168 45.1517 86.6478 45.1517 85.946C45.1517 85.2442 45.7207 84.6752 46.4225 84.6752C47.1244 84.6752 47.6933 85.2442 47.6933 85.946Z" fill="#EF4444"/>
<path d="M47.6933 92.2999C47.6933 93.0018 47.1244 93.5707 46.4225 93.5707C45.7207 93.5707 45.1517 93.0018 45.1517 92.2999C45.1517 91.5981 45.7207 91.0291 46.4225 91.0291C47.1244 91.0291 47.6933 91.5981 47.6933 92.2999Z" fill="#EF4444"/>
<path d="M22.4035 64.2775L6.71062 58.9419V63.0719C10.395 64.5457 13.9804 67.7206 15.4596 69.2703C15.5556 69.3708 15.6802 69.4387 15.8171 69.4625L22.0986 70.555C22.5098 70.6265 22.7415 71.0683 22.5666 71.4472L21.3177 74.1532C21.1544 74.5071 21.3453 74.9233 21.7201 75.0304L25.3482 76.067C25.4186 76.0871 25.492 76.0949 25.5651 76.0901L30.2201 75.7797C27.0713 70.6272 23.4067 65.4747 22.7121 64.5052C22.6354 64.3981 22.5283 64.3199 22.4035 64.2775Z" fill="#EF4444"/>
<path d="M19.4184 74.1913C17.6393 74.4454 15.9238 73.45 15.2884 72.9205C15.7967 75.7162 21.8541 77.0505 24.8192 77.3682C23.0401 80.6723 23.8661 85.3106 24.5015 87.2168C-3.13793 87.8522 4.80444 68.1551 6.39291 64.6604C8.37874 64.9087 12.9506 68.8137 15.136 70.8703C15.236 70.9643 15.3621 71.023 15.4984 71.039L20.6892 71.6497L19.4184 74.1913Z" fill="#EF4444"/>
<path d="M5.12216 99.6069C4.61385 96.8112 5.75755 88.064 6.39294 84.0399C15.5426 89.6313 21.96 88.8053 25.4546 88.8053L26.4077 87.8522C27.6785 88.1064 29.7965 87.2168 30.5378 86.8991C32.8252 87.6616 33.9265 87.5345 34.3501 87.2168C36.2563 112.315 12.4291 102.466 5.12216 99.6069Z" fill="#EF4444"/>
<path d="M26.7254 77.3682C24.6922 79.4015 25.2428 84.1457 25.7723 86.2637C28.0597 86.2637 29.6906 85.6283 30.2201 85.3106C31.8815 86.049 33.1966 86.05 33.9948 85.8734C34.4307 85.777 34.6843 85.3507 34.5915 84.914C34.3392 83.7272 33.5232 82.8064 33.0793 82.4513C34.9418 82.2185 35.5247 83.212 35.6095 83.8688C35.6171 83.9273 35.6936 83.9521 35.7287 83.9047C37.016 82.1641 34.5244 80.3146 33.0793 79.5921C34.9234 79.3616 35.8615 79.8105 36.1781 80.1331C36.2142 80.1698 36.2828 80.1571 36.299 80.1081C37.3546 76.924 30.3867 76.9498 26.7254 77.3682Z" fill="#1B6899"/>
<path d="M60.7188 62.1189C60.7188 65.2959 55.9534 76.7329 55.9534 84.0399L63.5781 70.379C62.7737 69.7757 62.1815 68.8676 61.8644 68.2523C61.7391 68.0093 61.8127 67.7183 62.0215 67.5416L65.8019 64.3428C65.2936 62.5637 65.1665 60.2127 65.1665 59.2596L60.7188 62.1189Z" fill="#EF4444"/>
<path d="M66.4372 98.9715C57.2242 104.69 55.1061 93.0412 55.6356 86.5814L65.1664 71.0143C65.4205 70.2519 64.2133 68.7905 63.5779 68.1551C64.5945 67.9009 66.3313 65.7194 67.0726 64.6604C67.3267 63.1355 66.7549 60.6363 66.4372 59.5773C67.708 59.069 71.4144 54.9178 73.1088 52.9057C73.8712 57.9888 78.2978 59.4714 80.4158 59.5773C77.62 66.4395 70.779 71.7556 67.708 73.5559C67.1686 73.1963 66.7033 71.6495 66.4023 70.2878C66.3848 70.2085 66.2133 70.2298 66.2183 70.3109C66.5451 75.5404 67.51 92.803 66.4372 98.9715Z" fill="#EF4444"/>
<path d="M79.4628 57.9888C76.1588 57.7347 74.6974 54.4942 74.3797 52.9057C74.3797 50.6183 77.1331 47.2931 78.5097 45.9164C80.7336 44.328 81.0513 46.2341 80.4159 47.8226C76.8577 52.9057 80.4159 52.6939 82.6398 51.9526C76.6036 51.9526 83.5929 45.5987 84.8636 49.7288C85.7159 52.4985 81.5808 56.4004 79.4628 57.9888Z" fill="#1B6899"/>
<path d="M81.6867 47.8226C82.2162 47.6108 83.5929 47.5049 84.5459 47.8226C86.1344 44.9633 81.6867 42.7395 81.6867 47.8226Z" fill="#1B6899"/>
<path d="M83.5929 43.6926C82.5762 43.4384 81.4749 44.2221 81.0513 44.6456L95.983 0.486025C96.3007 -0.467077 97.2538 0.168329 96.9361 0.80372L83.5929 43.6926Z" fill="#EF4444"/>
<path d="M31.1732 102.466C27.615 106.533 15.9238 104.584 10.523 103.102C11.2854 108.439 15.9238 112.95 18.1476 112.95C18.9101 114.475 18.4653 116.974 18.1476 118.033C18.4018 121.337 22.4895 121.74 24.5016 121.528C24.7557 120.511 24.1839 119.198 23.8662 118.669C24.9875 119.117 25.6965 120.258 25.9933 120.957C26.0544 121.101 26.2074 121.192 26.3597 121.157C28.9764 120.551 26.8862 118.179 25.1231 117.35C24.8219 117.208 24.5785 116.418 24.7988 116.169C25.7567 115.084 26.6425 113.671 27.0431 112.95C27.2973 113.713 26.9372 114.962 26.7254 115.492C52.4587 120.257 62.625 108.82 63.5781 101.513C60.274 102.276 58.389 100.984 57.8595 100.242C51.2515 105.834 46.6343 102.572 45.1517 100.242C42.6102 105.58 34.7737 103.949 31.1732 102.466Z" fill="#1B6899"/>
<path d="M54.0472 114.856L49.9172 116.445C51.3935 119.397 55.3712 119.611 57.3529 119.333C57.4694 119.317 57.5688 119.235 57.583 119.118C57.6762 118.351 56.9794 117.251 56.5888 116.762C57.8425 117.18 58.4664 118.2 58.7074 118.902C58.7755 119.1 59.0041 119.217 59.1865 119.113C61.8386 117.611 58.6197 115.669 56.5888 114.856H54.0472Z" fill="#1B6899"/>
<path d="M12.4291 110.409C12.7468 110.938 13.6364 112.188 14.653 112.95C10.8407 115.174 4.80445 112.95 12.4291 110.409Z" fill="#1B6899"/>
</svg>
